<svg width="30" height="31" viewBox="0 0 30 31" fill="none" xmlns="http://www.w3.org/2000/svg">
<g id="vuesax/bold/dollar-circle">
<g id="dollar-circle">
<path id="Vector" d="M16.5533 19.2081L17.1795 19.0338C17.8057 18.8594 18.1703 18.1558 17.9825 17.4815C17.7492 16.6434 17.4049 16.5627 16.8653 16.5261L15.7985 16.4599L16.563 19.2055L16.5533 19.2081Z" fill="#FFAB00"/>
<path id="Vector_2" d="M12.0409 5.9112C6.72862 7.4112 3.62688 12.9357 5.12687 18.248C6.62686 23.5604 12.1514 26.6621 17.4637 25.1621C22.776 23.6621 25.8778 18.1376 24.3778 12.8253C22.8778 7.51296 17.356 4.42085 12.0409 5.9112ZM16.9563 15.0268C17.7802 15.0776 18.9473 15.3547 19.4274 17.0791C19.8405 18.5627 19.0075 20.0818 17.5817 20.4788L16.9556 20.6532L17.1111 21.2119C17.2211 21.6069 16.9848 22.0256 16.5898 22.1356C16.1948 22.2456 15.7761 22.0093 15.6661 21.6143L15.5105 21.0555L15.1637 21.1521C13.5838 21.592 11.9324 20.6194 11.4764 18.9817C11.3664 18.5867 11.6027 18.168 11.9977 18.058C12.3927 17.948 12.8114 18.1843 12.9214 18.5793C13.1548 19.4174 13.981 19.9244 14.7614 19.7071L15.1082 19.6105L14.2015 16.3544L12.602 16.2392C11.7781 16.1884 10.611 15.9113 10.1309 14.1869C9.71777 12.7033 10.5508 11.1842 11.9766 10.7872L12.6027 10.6128L12.4472 10.0541C12.3372 9.6591 12.5735 9.24036 12.9685 9.13038C13.3635 9.0204 13.7822 9.25673 13.8922 9.65171L14.0478 10.2104L14.3946 10.1139C15.9745 9.67396 17.6259 10.6466 18.0819 12.2843C18.1919 12.6793 17.9556 13.098 17.5606 13.208C17.1656 13.318 16.7469 13.0816 16.6369 12.6867C16.4035 11.8486 15.5772 11.3416 14.7969 11.5589L14.4501 11.6555L15.3568 14.9116L16.9563 15.0268Z" fill="#FFAB00"/>
<path id="Vector_3" d="M11.5882 13.7915C11.8216 14.6296 12.1658 14.7102 12.7054 14.7468L13.7723 14.813L13.0051 12.0578L12.3789 12.2322C11.7528 12.4066 11.3978 13.1075 11.5882 13.7915Z" fill="#FFAB00"/>
</g>
</g>
</svg>
