<svg width="40" height="40" viewBox="0 0 40 40" fill="none" xmlns="http://www.w3.org/2000/svg">
<g id="check-circle-1">
<path id="Shape" d="M20 0C8.9543 0 0 8.9543 0 20C0 31.0457 8.9543 40 20 40C31.0457 40 40 31.0457 40 20C39.9871 8.95964 31.0404 0.0128579 20 0Z" fill="#17C84D"/>
<path id="Path" d="M29.6771 14.3017L19.7283 27.4311C19.4911 27.7372 19.1373 27.9378 18.7464 27.9878C18.3556 28.0378 17.9605 27.9329 17.6499 27.6968L10.5455 22.1731C9.9186 21.6853 9.81709 20.7955 10.3188 20.1859C10.8205 19.5762 11.7354 19.4775 12.3623 19.9654L18.2865 24.5746L27.3371 12.6296C27.6338 12.1965 28.1514 11.9571 28.6841 12.0064C29.2169 12.0556 29.6787 12.3856 29.8863 12.8654C30.0938 13.3451 30.0134 13.8969 29.6771 14.3017Z" fill="white"/>
</g>
</svg>
