<svg width="92" height="69" viewBox="0 0 92 69" fill="none" xmlns="http://www.w3.org/2000/svg">
<g id="WooCommerce_logo 1">
<path id="Vector" d="M7.26756 19.8782L71.0094 2.12912C75.0432 1.0059 79.2181 3.36195 80.3414 7.39606L87.1165 31.7273C88.2398 35.7611 85.8837 39.9361 81.8496 41.0594L58.9912 47.4244L64.2682 54.2341L48.3302 50.3929L18.1402 58.7994C14.1064 59.9227 9.93146 57.5666 8.80815 53.5325L2.03304 29.2012C0.886665 25.2082 3.23376 21.0014 7.26756 19.8782Z" fill="#7E85F9"/>
<path id="Vector_2" d="M6.31194 27.3133C6.58919 26.5844 7.16904 26.0799 8.04262 25.7681C9.63063 25.1887 10.7665 25.6956 11.4503 27.2889C14.2897 33.6672 16.9409 39.0001 19.3723 43.2969L22.6473 28.0815C22.9472 26.6946 23.5657 25.8363 24.503 25.5068C25.877 25.0212 26.9847 25.6732 27.8578 27.4539C29.8325 31.4661 31.8528 34.7795 33.9133 37.4985C32.4895 29.1824 32.2682 22.9673 33.2402 18.8204C33.4695 17.7961 34.0457 17.1555 34.9512 16.8347C35.6656 16.5672 36.3961 16.6039 37.1339 16.913C37.8717 17.222 38.3584 17.7382 38.6259 18.4526C38.8173 19.0168 38.8548 19.5208 38.7331 20.0692C38.1298 22.7069 38.1837 26.8424 38.8452 32.4205C39.4943 37.8309 40.3335 41.9534 41.3311 44.797C41.6163 45.575 41.684 46.3108 41.5341 47.0043C41.3471 47.811 40.8805 48.3525 40.1661 48.62C39.3561 48.9142 38.3903 48.7715 37.3233 48.1425C33.5208 45.9427 29.9065 42.0785 26.5124 36.5406C25.5778 41.1912 24.9009 44.6728 24.4814 46.9848C23.6049 51.1048 22.5274 53.3943 21.2169 53.8621C20.3751 54.1651 19.4391 53.6368 18.377 52.2861C15.5923 48.5679 11.599 41.0019 6.39687 29.5878C6.03908 28.7956 6.0262 28.0102 6.31229 27.3131L6.31194 27.3133ZM76.1133 13.2621C74.4089 11.5757 72.3849 10.8358 69.9919 10.9876C69.3517 11.0286 68.7609 11.1245 68.2198 11.2752C65.1639 12.1261 63.1242 14.4092 62.0688 18.1332C61.1669 21.2999 61.1725 24.5227 62.0854 27.8013C62.7679 30.2524 63.8622 32.2114 65.3684 33.6787C67.0728 35.3651 69.0968 36.1051 71.4898 35.9533C72.1301 35.9122 72.7208 35.8163 73.2619 35.6656C76.3496 34.8058 78.3893 32.5228 79.4129 28.8076C80.3059 25.6091 80.3004 22.3863 79.3874 19.1077C78.7279 16.6159 77.6106 14.6976 76.1133 13.2621ZM74.5577 23.1966C74.6971 25.4216 74.3356 27.2029 73.4503 28.5816C72.7576 29.6663 71.9957 30.2558 71.1555 30.3182C70.3472 30.3718 69.5244 29.8806 68.7013 28.7721C68.0445 27.8916 67.5787 26.958 67.3216 26.0349C67.1001 25.239 66.9421 24.4255 66.8974 23.649C66.8205 22.2641 67.0071 20.8401 67.5297 19.3911C68.1458 17.5388 69.0827 16.5919 70.2908 16.4956C71.0991 16.442 71.9219 16.9332 72.7451 18.0418C73.4019 18.9222 73.8676 19.8558 74.1247 20.779C74.3552 21.6066 74.513 22.4201 74.5577 23.1966ZM56.1859 18.8109C54.4815 17.1246 52.4257 16.3934 50.0646 16.5364C49.4243 16.5775 48.8336 16.6734 48.2924 16.824C45.2365 17.675 43.1968 19.958 42.1414 23.682C41.2396 26.8487 41.2452 30.0715 42.1581 33.3501C42.8406 35.8012 43.9349 37.7603 45.4411 39.2275C47.1455 40.9139 49.1695 41.6539 51.5625 41.5021C52.2027 41.461 52.7934 41.3651 53.3346 41.2144C56.4223 40.3547 58.462 38.0716 59.4856 34.3565C60.3786 31.1579 60.373 27.9351 59.4601 24.6566C58.7687 22.1736 57.6833 20.2464 56.1859 18.8109ZM54.5986 28.7543C54.7379 30.9793 54.3764 32.7606 53.4912 34.1393C52.7985 35.224 52.0365 35.8134 51.1964 35.8759C50.3881 35.9295 49.5653 35.4383 48.7421 34.3297C48.0853 33.4493 47.6195 32.5157 47.3625 31.5925C47.1409 30.7967 46.983 29.9832 46.9383 29.2067C46.8613 27.8218 47.0479 26.3978 47.5706 24.9488C48.1867 23.0965 49.1236 22.1496 50.3317 22.0533C51.14 21.9997 51.9628 22.4909 52.7859 23.5994C53.4427 24.4799 53.9085 25.4135 54.1655 26.3366C54.4278 27.1554 54.5539 27.9778 54.5986 28.7543Z" fill="white"/>
</g>
</svg>
