<svg width="178" height="178" viewBox="0 0 178 178" fill="none" xmlns="http://www.w3.org/2000/svg">
<g id="download - 2023-11-13T113730.398 1">
<path id="Vector" d="M88.9018 120.808C89.8126 122.572 90.5463 124.438 91.0879 126.383C95.4018 141.876 86.3403 157.931 70.8481 162.244C55.3555 166.558 39.3007 157.497 34.9869 142.005C30.6732 126.513 39.7345 110.457 55.2266 106.143C56.6175 105.756 58.024 105.473 59.4391 105.296L59.4985 99.2077C59.5199 97.0637 61.2735 95.3435 63.4172 95.3629C75.922 95.4804 87.6693 101.678 94.8383 111.906C96.069 113.662 95.6428 116.083 93.8878 117.314L88.9018 120.808ZM57.3098 113.624C45.949 116.788 39.3036 128.562 42.4668 139.922C45.6302 151.283 57.4047 157.928 68.7654 154.765C80.1253 151.602 86.7707 139.827 83.6072 128.466C83.3047 127.38 82.9215 126.33 82.4627 125.32L65.2658 137.374C62.6776 139.187 59.124 137.316 59.1553 134.157L59.3614 113.159C58.6743 113.28 57.9901 113.435 57.3098 113.624ZM86.0496 113.324C81.1447 107.925 74.4537 104.398 67.2222 103.41L66.9935 126.681L86.0496 113.324ZM51.0614 91.1848C35.5688 95.4987 19.514 86.4372 15.2002 70.945C10.8862 55.4524 19.9478 39.3976 35.44 35.0838C50.9317 30.7701 66.9874 39.8314 71.3012 55.3235C75.6149 70.8152 66.5536 86.8709 51.0614 91.1848ZM48.9786 83.7047C60.3384 80.5415 66.9838 68.7671 63.8207 57.4072C60.6572 46.0465 48.8828 39.4011 37.5229 42.5643C26.1622 45.7277 19.5168 57.5021 22.6802 68.8629C25.8434 80.2228 37.6178 86.8682 48.9786 83.7047ZM86.2611 51.1587C85.6858 49.0928 86.8941 46.9517 88.9592 46.3767C91.025 45.8015 93.1661 47.0098 93.7413 49.0758C96.9045 60.4356 108.679 67.081 120.039 63.9178C131.4 60.7544 138.045 48.9799 134.882 37.6201C131.718 26.2593 119.944 19.6139 108.583 22.7774C106.518 23.3524 104.377 22.144 103.802 20.0781C103.227 18.0131 104.435 15.8721 106.5 15.2971C121.993 10.9831 138.048 20.0447 142.362 35.5369C146.675 51.0286 137.614 67.0843 122.122 71.3981C106.63 75.7118 90.5749 66.6508 86.2611 51.1587ZM115.874 48.9573C112.775 49.8201 109.565 48.0081 108.702 44.9099C107.839 41.8108 109.651 38.6003 112.749 37.7376C115.848 36.8746 119.059 38.6866 119.922 41.7857C120.785 44.8841 118.973 48.0944 115.874 48.9573ZM126.288 86.3588C128.354 85.7835 130.495 86.9919 131.07 89.0569C131.645 91.1227 130.437 93.2638 128.371 93.8391C117.011 97.0022 110.366 108.777 113.529 120.137C115.07 125.67 118.701 130.237 123.604 133.005C125.471 134.058 126.131 136.427 125.077 138.294C124.023 140.161 121.655 140.82 119.787 139.767C113.109 135.997 108.148 129.757 106.049 122.219C101.735 106.728 110.796 90.6726 126.288 86.3588ZM141.91 142.46C139.845 143.035 137.704 141.826 137.129 139.761C136.553 137.696 137.762 135.555 139.827 134.98C151.187 131.816 157.833 120.042 154.669 108.681C153.129 103.148 149.497 98.5809 144.595 95.8132C142.727 94.7599 142.068 92.3917 143.122 90.5239C144.175 88.6573 146.544 87.9979 148.411 89.0511C155.09 92.8211 160.051 99.0609 162.15 106.598C166.464 122.091 157.402 138.146 141.91 142.46ZM149.059 110.244C149.634 112.309 148.427 114.45 146.361 115.025C144.295 115.601 142.154 114.392 141.579 112.326C140.429 108.196 136.148 105.779 132.016 106.93C127.885 108.08 125.469 112.361 126.619 116.492C127.77 120.624 132.051 123.04 136.182 121.889C138.247 121.314 140.389 122.522 140.964 124.588C141.539 126.654 140.33 128.794 138.265 129.37C130.003 131.67 121.44 126.837 119.139 118.575C116.839 110.313 121.672 101.75 129.933 99.4499C138.196 97.1491 146.759 101.982 149.059 110.244ZM49.6902 57.3127C51.7561 56.7375 53.8971 57.9458 54.4724 60.0118C55.0474 62.0767 53.839 64.2178 51.7731 64.793L36.8137 68.9585C34.7478 69.5338 32.6068 68.3254 32.0317 66.2604C31.4565 64.1946 32.6648 62.0535 34.7308 61.4782L49.6902 57.3127Z" fill="#83CFFF"/>
</g>
</svg>
