<svg width="242" height="242" viewBox="0 0 242 242" fill="none" xmlns="http://www.w3.org/2000/svg">
<g id="download - 2023" clip-path="url(#clip0_10006_8744)">
<path id="Vector" d="M200.268 132.469L192.206 103.516C190.465 97.2653 183.944 93.5849 177.693 95.3254L150.568 102.878C151.023 100.973 151.2 98.9855 150.642 96.9806L137.013 48.0373C135.273 41.7867 128.752 38.1063 122.501 39.8468L65.5382 55.7083C59.2876 57.4488 55.6072 63.9698 57.3477 70.2204L70.9678 119.134C71.5261 121.139 72.705 122.749 74.0788 124.145L46.9536 131.698C40.703 133.439 37.0226 139.96 38.7631 146.211L52.3833 195.124C54.1238 201.375 60.6448 205.055 66.8954 203.315L123.858 187.453C127.249 186.509 129.762 184.126 131.178 181.222C133.928 182.998 137.303 183.71 140.664 182.774L177.49 172.52C183.416 178.399 192.184 181.136 200.793 178.739C213.56 175.184 221.019 161.924 217.472 149.187C215.091 140.636 208.305 134.52 200.238 132.477L200.268 132.469ZM138.993 112.424L162.669 105.831L166.692 120.278C167.102 121.753 166.251 123.26 164.777 123.671L146.409 128.786C144.934 129.196 143.418 128.316 143.016 126.871L138.993 112.424ZM83.8303 56.937L107.506 50.3445L111.529 64.7916C111.947 66.2953 111.088 67.7736 109.614 68.184L91.2751 73.2906C89.7714 73.7093 88.2932 72.8501 87.8827 71.3759L83.8598 56.9288L83.8303 56.937ZM76.8646 117.492L63.2444 68.5784C62.407 65.5711 64.1728 62.4425 67.1801 61.6051L77.9123 58.6167L81.9351 73.0638C83.2487 77.7812 88.1489 80.5469 92.8663 79.2333L111.205 74.1267C115.923 72.8132 118.688 67.913 117.375 63.1955L113.352 48.7484L124.084 45.76C127.091 44.9226 130.22 46.6884 131.057 49.6957L144.678 98.6095C145.515 101.617 143.749 104.745 140.742 105.583L120.693 111.166C117.302 112.11 114.789 114.493 113.374 117.397C110.623 115.621 107.248 114.909 103.887 115.845L83.838 121.428C80.8306 122.265 77.702 120.5 76.8646 117.492ZM65.2245 132.965L88.9001 126.372L92.9229 140.819C93.3334 142.294 92.453 143.81 91.0082 144.212L72.6693 149.318C71.1656 149.737 69.6873 148.878 69.2768 147.404L65.254 132.957L65.2245 132.965ZM126.16 174.613C126.998 177.62 125.232 180.749 122.225 181.586L65.2616 197.448C62.2543 198.285 59.1257 196.519 58.2883 193.512L44.6681 144.598C43.8307 141.591 45.5964 138.462 48.6038 137.625L59.3359 134.636L63.3588 149.083C64.6723 153.801 69.5725 156.567 74.29 155.253L92.629 150.146C97.3464 148.833 100.112 143.933 98.7984 139.215L94.7756 124.768L105.508 121.78C108.515 120.942 111.644 122.708 112.481 125.715L126.101 174.629L126.16 174.613ZM139.03 176.907C136.023 177.744 132.894 175.978 132.057 172.971L118.437 124.057C117.599 121.05 119.365 117.921 122.373 117.084L133.105 114.095L137.127 128.542C138.441 133.26 143.341 136.025 148.059 134.712L166.427 129.597C171.145 128.284 173.91 123.383 172.597 118.666L168.574 104.219L179.306 101.23C182.313 100.393 185.442 102.159 186.279 105.166L193.676 131.731C191.755 131.79 189.836 131.974 187.89 132.516C175.124 136.071 167.635 149.339 171.19 162.106C171.716 163.993 172.511 165.709 173.417 167.363L138.98 176.952L139.03 176.907ZM199.159 172.871C189.665 175.515 179.76 169.949 177.117 160.456C174.473 150.962 180.039 141.057 189.562 138.405C199.085 135.753 208.932 141.335 211.583 150.858C214.235 160.382 208.653 170.228 199.13 172.88L199.159 172.871Z" fill="#D0AEFF"/>
<path id="Vector_2" d="M196.543 147.39L191.757 155.871L189.646 154.679C189.297 154.482 188.912 154.356 188.515 154.308C188.117 154.259 187.713 154.29 187.327 154.397C186.941 154.505 186.58 154.687 186.265 154.934C185.949 155.181 185.685 155.488 185.489 155.837C185.292 156.186 185.165 156.57 185.117 156.968C185.068 157.366 185.099 157.769 185.206 158.155C185.314 158.541 185.496 158.902 185.743 159.218C185.99 159.533 186.297 159.797 186.646 159.994L191.433 162.696C192.149 163.1 192.969 163.19 193.765 162.968C194.561 162.746 195.208 162.217 195.62 161.53L201.896 150.411C202.294 149.706 202.395 148.872 202.178 148.092C201.961 147.313 201.443 146.651 200.738 146.253C200.033 145.856 199.199 145.754 198.42 145.971C197.64 146.188 196.979 146.706 196.581 147.411L196.543 147.39ZM89.0434 164.425L60.1197 172.479C58.4981 172.93 57.5407 174.626 57.9923 176.248L62.1054 191.019C62.557 192.641 64.2532 193.598 65.8748 193.147L94.7985 185.093C96.4201 184.641 97.3775 182.945 96.9259 181.323L92.8128 166.552C92.3612 164.93 90.665 163.973 89.0434 164.425ZM90.2082 180.017L67.1812 186.429L64.7101 177.554L87.737 171.142L90.2082 180.017ZM115.502 105.304L111.389 90.5324C110.938 88.9107 109.241 87.9534 107.62 88.405L78.696 96.4588C77.0744 96.9104 76.1171 98.6066 76.5686 100.228L80.6818 115C81.1333 116.621 82.8296 117.579 84.4512 117.127L113.375 109.073C114.996 108.622 115.954 106.925 115.502 105.304ZM108.785 103.997L85.7576 110.409L83.2864 101.535L106.313 95.1227L108.785 103.997ZM152.758 146.683L133.918 151.929C132.296 152.381 131.339 154.077 131.791 155.699L135.904 170.47C136.355 172.092 138.051 173.049 139.673 172.597L158.513 167.351C160.135 166.9 161.092 165.204 160.641 163.582L156.528 148.811C156.076 147.189 154.38 146.232 152.758 146.683ZM153.923 162.276L140.979 165.88L138.508 157.005L151.452 153.401L153.923 162.276Z" fill="#D0AEFF"/>
</g>
<defs>
<clipPath id="clip0_10006_8744">
<rect width="195.876" height="195.876" fill="white" transform="translate(0 52.6399) rotate(-15.56)"/>
</clipPath>
</defs>
</svg>
