<svg width="219" height="151" viewBox="0 0 219 151" fill="none" xmlns="http://www.w3.org/2000/svg">
<g id="Group 1261153808">
<path id="Vector" d="M16.5109 111.955C16.2146 110.89 16.837 109.788 17.9011 109.491L26.8337 107.004C27.8978 106.708 29.0006 107.33 29.2969 108.394L39.3768 144.594C39.6731 145.658 39.0507 146.761 37.9866 147.057L29.054 149.545C27.9899 149.841 26.8871 149.218 26.5908 148.154L16.5109 111.955ZM42.0829 104.834C41.7866 103.77 42.409 102.667 43.4731 102.371L52.4056 99.8835C53.4697 99.5872 54.5725 100.21 54.8688 101.274L60.4876 121.452C60.7839 122.516 60.1615 123.619 59.0974 123.915L50.1648 126.403C49.1007 126.699 47.9979 126.077 47.7016 125.012L42.0829 104.834ZM67.6548 97.7134C67.3585 96.6493 67.9809 95.5465 69.045 95.2502L77.9776 92.7629C79.0417 92.4666 80.1445 93.089 80.4408 94.1531L86.0595 114.332C86.3558 115.396 85.7334 116.499 84.6693 116.795L75.7367 119.282C74.6727 119.578 73.5698 118.956 73.2736 117.892L67.6548 97.7134ZM0.896846 55.8801C0.600548 54.816 1.22296 53.7132 2.28705 53.4169L11.2196 50.9296C12.2837 50.6333 13.3865 51.2558 13.6828 52.3198L21.5322 80.509C21.8284 81.5731 21.206 82.6759 20.1419 82.9722L11.2094 85.4595C10.1453 85.7558 9.04248 85.1333 8.74618 84.0693L0.896846 55.8801ZM26.4688 48.7596C26.1725 47.6955 26.7949 46.5927 27.859 46.2964L36.7916 43.8091C37.8556 43.5128 38.9585 44.1352 39.2548 45.1993L47.1041 73.3884C47.4004 74.4525 46.778 75.5553 45.7139 75.8516L36.7813 78.3389C35.7172 78.6352 34.6144 78.0128 34.3181 76.9487L26.4688 48.7596ZM52.0407 41.639C51.7444 40.5749 52.3668 39.4721 53.4309 39.1758L62.3635 36.6885C63.4276 36.3922 64.5304 37.0146 64.8267 38.0787L72.676 66.2678C72.9723 67.3319 72.3499 68.4347 71.2858 68.731L62.3533 71.2183C61.2892 71.5146 60.1864 70.8922 59.8901 69.8281L52.0407 41.639ZM77.6127 34.5184C77.3164 33.4543 77.9388 32.3515 79.0029 32.0552L87.9354 29.5679C88.9995 29.2716 90.1023 29.894 90.3986 30.9581L98.248 59.1473C98.5443 60.2113 97.9219 61.3141 96.8578 61.6104L87.9252 64.0977C86.8611 64.394 85.7583 63.7716 85.462 62.7075L77.6127 34.5184ZM103.185 27.3978C102.888 26.3337 103.511 25.2309 104.575 24.9346L113.507 22.4473C114.571 22.151 115.674 22.7735 115.971 23.8376L123.82 52.0267C124.116 53.0908 123.494 54.1936 122.43 54.4899L113.497 56.9772C112.433 57.2735 111.33 56.6511 111.034 55.587L103.185 27.3978ZM128.757 20.2773C128.46 19.2132 129.083 18.1104 130.147 17.8141L139.079 15.3268C140.143 15.0305 141.246 15.6529 141.543 16.717L149.392 44.9061C149.688 45.9702 149.066 47.073 148.002 47.3693L139.069 49.8566C138.005 50.1529 136.902 49.5305 136.606 48.4664L128.757 20.2773ZM154.328 13.1567C154.032 12.0926 154.655 10.9898 155.719 10.6935L164.651 8.2062C165.715 7.9099 166.818 8.53232 167.114 9.59641L174.964 37.7855C175.26 38.8496 174.638 39.9524 173.574 40.2487L164.641 42.736C163.577 43.0323 162.474 42.4099 162.178 41.3458L154.328 13.1567ZM179.9 6.03612C179.604 4.97203 180.227 3.86922 181.291 3.57292L190.223 1.08562C191.287 0.789326 192.39 1.41174 192.686 2.47583L200.536 30.665C200.832 31.729 200.21 32.8319 199.146 33.1282L190.213 35.6154C189.149 35.9117 188.046 35.2893 187.75 34.2252L179.9 6.03612ZM144.371 76.3517C144.074 75.2876 144.697 74.1848 145.761 73.8885L154.693 71.4012C155.757 71.1049 156.86 71.7273 157.157 72.7914L162.775 92.9699C163.072 94.034 162.449 95.1368 161.385 95.4331L152.453 97.9204C151.388 98.2167 150.286 97.5943 149.989 96.5302L144.371 76.3517ZM169.943 69.2311C169.646 68.167 170.269 67.0642 171.333 66.7679L180.265 64.2806C181.329 63.9843 182.432 64.6067 182.729 65.6708L188.347 85.8493C188.644 86.9134 188.021 88.0162 186.957 88.3125L178.025 90.7998C176.96 91.0961 175.858 90.4737 175.561 89.4096L169.943 69.2311ZM93.2267 90.5928C92.9304 89.5288 93.5529 88.4259 94.6169 88.1296L103.55 85.6423C104.614 85.346 105.716 85.9685 106.013 87.0325L116.093 123.232C116.389 124.296 115.767 125.399 114.702 125.695L105.77 128.183C104.706 128.479 103.603 127.857 103.307 126.793L93.2267 90.5928ZM118.799 83.4723C118.502 82.4082 119.125 81.3054 120.189 81.0091L129.121 78.5218C130.186 78.2255 131.288 78.8479 131.585 79.912L137.203 100.09C137.5 101.155 136.877 102.257 135.813 102.554L126.881 105.041C125.817 105.337 124.714 104.715 124.417 103.651L118.799 83.4723ZM195.515 62.1105C195.218 61.0465 195.841 59.9436 196.905 59.6473L205.837 57.16C206.901 56.8637 208.004 57.4862 208.3 58.5503L218.38 94.75C218.677 95.8141 218.054 96.9169 216.99 97.2132L208.058 99.7005C206.994 99.9968 205.891 99.3744 205.594 98.3103L195.515 62.1105Z" fill="#919EAB"/>
<path id="Vector_2" d="M12.0502 95.9334C11.7539 94.8693 12.3763 93.7665 13.4404 93.4702L201.377 41.1389C202.441 40.8426 203.543 41.465 203.84 42.5291L204.997 46.6863C205.294 47.7504 204.671 48.8532 203.607 49.1495L15.6709 101.481C14.6069 101.777 13.5041 101.155 13.2078 100.091L12.0502 95.9334Z" fill="#FF4842"/>
<path id="Vector_3" d="M51.0038 136.877C50.7075 135.813 51.3299 134.71 52.394 134.414L61.3266 131.926C62.3906 131.63 63.4935 132.252 63.7897 133.317L64.9473 137.474C65.2436 138.538 64.6212 139.641 63.5571 139.937L54.6246 142.424C53.5605 142.721 52.4577 142.098 52.1614 141.034L51.0038 136.877ZM76.5757 129.756C76.2794 128.692 76.9018 127.589 77.9659 127.293L86.8985 124.806C87.9626 124.509 89.0654 125.132 89.3617 126.196L90.5193 130.353C90.8156 131.417 90.1932 132.52 89.1291 132.816L80.1965 135.304C79.1324 135.6 78.0296 134.978 77.7333 133.913L76.5757 129.756ZM127.72 115.515C127.423 114.451 128.046 113.348 129.11 113.052L138.042 110.565C139.106 110.268 140.209 110.891 140.506 111.955L141.663 116.112C141.959 117.176 141.337 118.279 140.273 118.575L131.34 121.063C130.276 121.359 129.173 120.736 128.877 119.672L127.72 115.515ZM153.292 108.395C152.995 107.33 153.618 106.228 154.682 105.931L163.614 103.444C164.678 103.148 165.781 103.77 166.078 104.834L167.235 108.991C167.531 110.056 166.909 111.158 165.845 111.455L156.912 113.942C155.848 114.238 154.745 113.616 154.449 112.552L153.292 108.395ZM178.863 101.274C178.567 100.21 179.19 99.1071 180.254 98.8108L189.186 96.3235C190.25 96.0272 191.353 96.6496 191.649 97.7137L192.807 101.871C193.103 102.935 192.481 104.038 191.417 104.334L182.484 106.821C181.42 107.118 180.317 106.495 180.021 105.431L178.863 101.274Z" fill="#919EAB"/>
</g>
</svg>
