<svg width="39" height="34" viewBox="0 0 39 34" fill="none" xmlns="http://www.w3.org/2000/svg">
<g id="Frame" clip-path="url(#clip0_10006_7033)">
<g id="Group">
<g id="Group_2">
<g id="Group_3">
<path id="Vector" d="M4.87356 -8.31827e-05L0 8.50281L9.74712 8.50281L4.87356 -8.31827e-05Z" fill="#FDCB08"/>
<path id="Vector_2" d="M14.6206 -8.31827e-05L9.74707 8.50281L19.5057 8.50281L14.6206 -8.31827e-05Z" fill="#FDCB08"/>
<path id="Vector_3" d="M24.3794 -8.31827e-05L19.5059 8.50281L29.253 8.50281L24.3794 -8.31827e-05Z" fill="#FDCB08"/>
<path id="Vector_4" d="M34.1265 -8.31827e-05L29.2529 8.50281L39.0001 8.50281L34.1265 -8.31827e-05Z" fill="#FDCB08"/>
</g>
<g id="Group_4">
<path id="Vector_5" d="M9.7471 8.50284L4.87354 17.0057L14.6207 17.0057L9.7471 8.50284Z" fill="#FDCB08"/>
<path id="Vector_6" d="M19.5057 8.50284L14.6206 17.0057L24.3792 17.0057L19.5057 8.50284Z" fill="#FDCB08"/>
<path id="Vector_7" d="M29.253 8.50284L24.3794 17.0057L34.1265 17.0057L29.253 8.50284Z" fill="#FDCB08"/>
</g>
</g>
<g id="Group_5">
<g id="Group_6">
<path id="Vector_8" d="M4.87356 17.0057L0 25.4971L9.74712 25.4971L4.87356 17.0057Z" fill="#FDCB08"/>
<path id="Vector_9" d="M14.6206 17.0057L9.74707 25.4971L19.5057 25.4971L14.6206 17.0057Z" fill="#FDCB08"/>
<path id="Vector_10" d="M24.3794 17.0057L19.5059 25.4971L29.253 25.4971L24.3794 17.0057Z" fill="#FDCB08"/>
<path id="Vector_11" d="M34.1265 17.0057L29.2529 25.4971L39.0001 25.4971L34.1265 17.0057Z" fill="#FDCB08"/>
</g>
<g id="Group_7">
<path id="Vector_12" d="M9.7471 25.4971L4.87354 34L14.6207 34L9.7471 25.4971Z" fill="#FDCB08"/>
<path id="Vector_13" d="M19.5057 25.4971L14.6206 34L24.3792 34L19.5057 25.4971Z" fill="#FDCB08"/>
<path id="Vector_14" d="M29.253 25.4971L24.3794 34L34.1265 34L29.253 25.4971Z" fill="#FDCB08"/>
</g>
</g>
</g>
</g>
<defs>
<clipPath id="clip0_10006_7033">
<rect width="34" height="39" fill="white" transform="translate(0 34) rotate(-90)"/>
</clipPath>
</defs>
</svg>
